<svg xmlns="http://www.w3.org/2000/svg" xmlns:xlink="http://www.w3.org/1999/xlink" xmlns:sketch="http://www.bohemiancoding.com/sketch/ns" viewBox="0 0 100 125" version="1.1" x="0px" y="0px"><title>flame-3</title><desc>Created with Sketch.</desc><g stroke="none" stroke-width="1" fill="none" fill-rule="evenodd" sketch:type="MSPage"><path d="M80.4420661,65.9859339 C81.312314,71.1918017 80.4271901,76.7033719 77.8461983,81.3186612 C76.6330579,83.486843 75.0524793,85.4422975 73.2130579,87.1099008 C61.0801653,98.1099835 43.4267769,96.7845289 31.8309091,88.2062645 C21.3120661,80.4253554 15.7781818,66.6761818 23.8707438,50.7461818 C26.018843,46.5176694 28.2115702,42.3858512 27.4231405,37.4165124 C27.2282645,36.1877521 26.8095041,35.1992397 26.4428099,34.5789091 C26.3758678,34.4494876 26.7581818,33.9585785 26.9024793,34.0210579 C27.6827273,34.3222975 28.8921488,34.999157 30.0643802,36.3573388 C31.2217355,37.7058512 32.2519008,39.7156033 32.7033884,42.1396529 C32.7219835,42.2326281 32.7323967,42.3330413 32.7487603,42.4282479 C36.6507438,36.8452727 41.1864463,31.6490744 45.582314,26.5718843 C49.3258678,22.2474215 52.2281818,17.415686 51.4583471,11.430314 C51.1206612,8.80097521 50.082314,6.84403306 49.2217355,5.7394876 C49.0610744,5.50370248 49.3407438,5.21064463 49.5720661,5.39213223 C50.8402479,6.32634711 52.7391736,7.97014876 54.6819835,10.7281653 C58.7959504,16.6837851 60.3534711,24.0615537 60.147438,31.2124628 C62.9218182,27.7850248 64.2078512,23.3393223 62.7038843,19.069157 C62.6235537,18.8408099 62.9166116,18.6608099 63.0668595,18.8601488 C66.5292562,23.1578347 67.7312397,28.9587438 67.5646281,34.3721322 C67.4738843,37.3198182 66.9606612,40.2399835 66.2094215,43.0872562 C65.4894215,45.8147769 64.8750413,48.5765124 63.548843,51.0913058 C66.631157,45.6065124 72.2505785,39.6300661 78.5691736,38.1640331 C78.7447107,38.123124 78.8235537,38.3596529 78.6733058,38.4511405 C74.4076033,40.7070909 73.8638843,46.1933719 74.9684298,50.3638678 C76.2142975,55.0639504 78.8004959,59.3616364 80.0255372,64.050562 C80.191405,64.688 80.3327273,65.3321322 80.4420661,65.9859339" fill="#000000" sketch:type="MSShapeGroup"/></g><text x="0" y="115" fill="#000000" font-size="5px" font-weight="bold" font-family="'Helvetica Neue', Helvetica, Arial-Unicode, Arial, Sans-serif">Created by Marek Polakovic</text><text x="0" y="120" fill="#000000" font-size="5px" font-weight="bold" font-family="'Helvetica Neue', Helvetica, Arial-Unicode, Arial, Sans-serif">from the Noun Project</text></svg>